<mxfile host="Electron" modified="2023-06-26T11:19:34.397Z" agent="Mozilla/5.0 (Windows NT 10.0; Win64; x64) AppleWebKit/537.36 (KHTML, like Gecko) draw.io/21.5.0 Chrome/112.0.5615.204 Electron/24.5.1 Safari/537.36" etag="9v7Q2j10z70lmtQst3U6" version="21.5.0" type="device">
  <diagram name="Page-1" id="03018318-947c-dd8e-b7a3-06fadd420f32">
    <mxGraphModel dx="1588" dy="1968" grid="1" gridSize="10" guides="1" tooltips="1" connect="1" arrows="1" fold="1" page="1" pageScale="1" pageWidth="1100" pageHeight="850" background="none" math="0" shadow="0">
      <root>
        <mxCell id="0" />
        <mxCell id="1" parent="0" />
        <mxCell id="677b7b8949515195-2" value="&lt;h1 style=&quot;font-family: Arial, sans-serif;&quot;&gt;&lt;a style=&quot;text-decoration-line: none;&quot; href=&quot;http://127.0.0.1:5500/index.html&quot;&gt;&lt;font color=&quot;#33001a&quot; style=&quot;font-size: 48px;&quot;&gt;Musik-Event-Kalender&lt;/font&gt;&lt;/a&gt;&lt;/h1&gt;" style="whiteSpace=wrap;html=1;rounded=0;shadow=0;labelBackgroundColor=none;strokeWidth=1;fontFamily=Verdana;fontSize=28;align=center;comic=1;fillColor=#f5f5f5;gradientColor=#b3b3b3;strokeColor=#666666;" parent="1" vertex="1">
          <mxGeometry x="40" width="1020" height="50" as="geometry" />
        </mxCell>
        <mxCell id="677b7b8949515195-9" value="" style="line;strokeWidth=1;html=1;rounded=0;shadow=0;labelBackgroundColor=none;fillColor=none;fontFamily=Verdana;fontSize=14;fontColor=#190033;align=center;comic=1;" parent="1" vertex="1">
          <mxGeometry x="30" y="140" width="1040" height="10" as="geometry" />
        </mxCell>
        <mxCell id="677b7b8949515195-10" value="" style="whiteSpace=wrap;html=1;rounded=0;shadow=0;labelBackgroundColor=none;strokeWidth=1;fillColor=#a20025;fontFamily=Verdana;fontSize=12;align=center;comic=1;fontColor=#ffffff;strokeColor=#6F0000;" parent="1" vertex="1">
          <mxGeometry x="30" y="90" width="1040" height="50" as="geometry" />
        </mxCell>
        <mxCell id="677b7b8949515195-11" value="Startseite" style="text;html=1;points=[];align=left;verticalAlign=top;spacingTop=-4;fontSize=14;fontFamily=Verdana;fontColor=#190033;" parent="1" vertex="1">
          <mxGeometry x="355" y="105" width="60" height="20" as="geometry" />
        </mxCell>
        <mxCell id="677b7b8949515195-12" value="Künstler" style="text;html=1;points=[];align=left;verticalAlign=top;spacingTop=-4;fontSize=14;fontFamily=Verdana;fontColor=#190033;" parent="1" vertex="1">
          <mxGeometry x="520" y="105" width="60" height="20" as="geometry" />
        </mxCell>
        <mxCell id="677b7b8949515195-13" value="Galerie&lt;br&gt;" style="text;html=1;points=[];align=left;verticalAlign=top;spacingTop=-4;fontSize=14;fontFamily=Verdana;fontColor=#190033;" parent="1" vertex="1">
          <mxGeometry x="690" y="105" width="60" height="20" as="geometry" />
        </mxCell>
        <mxCell id="677b7b8949515195-26" value="" style="whiteSpace=wrap;html=1;rounded=0;shadow=0;labelBackgroundColor=none;strokeWidth=1;fillColor=#cdeb8b;fontFamily=Verdana;fontSize=12;align=center;comic=1;strokeColor=#36393d;" parent="1" vertex="1">
          <mxGeometry x="30" y="150" width="1040" height="900" as="geometry" />
        </mxCell>
        <mxCell id="REHDm1wyKtZERqcf-xgg-2" value="© 2023 Musik-Event-Kalender. Erstellt von Mohammad Shahir Bashiri." style="whiteSpace=wrap;html=1;rounded=0;shadow=0;labelBackgroundColor=none;strokeWidth=1;fontFamily=Verdana;fontSize=12;align=center;comic=1;fillColor=#000000;fontColor=#ffffff;" parent="1" vertex="1">
          <mxGeometry x="30" y="1060" width="1040" height="50" as="geometry" />
        </mxCell>
        <mxCell id="REHDm1wyKtZERqcf-xgg-4" value="&#xa;&lt;h2 style=&quot;font-family: Arial, sans-serif; font-style: normal; font-variant-ligatures: normal; font-variant-caps: normal; letter-spacing: normal; orphans: 2; text-align: center; text-indent: 0px; text-transform: none; widows: 2; word-spacing: 0px; -webkit-text-stroke-width: 0px; text-decoration-thickness: initial; text-decoration-style: initial; text-decoration-color: initial;&quot;&gt;Kommende Events&lt;/h2&gt;&lt;div style=&quot;font-family: Arial, sans-serif; font-size: medium; font-style: normal; font-variant-ligatures: normal; font-variant-caps: normal; font-weight: 400; letter-spacing: normal; orphans: 2; text-align: center; text-indent: 0px; text-transform: none; widows: 2; word-spacing: 0px; -webkit-text-stroke-width: 0px; text-decoration-thickness: initial; text-decoration-style: initial; text-decoration-color: initial;&quot; class=&quot;event&quot;&gt;&lt;br class=&quot;Apple-interchange-newline&quot;&gt;&#xa;&#xa;&lt;/div&gt;" style="whiteSpace=wrap;html=1;rounded=0;shadow=0;labelBackgroundColor=none;strokeWidth=1;fillColor=none;fontFamily=Verdana;fontSize=12;align=center;comic=1;strokeColor=none;fontColor=#190033;" parent="1" vertex="1">
          <mxGeometry x="340" y="160" width="420" height="70" as="geometry" />
        </mxCell>
        <mxCell id="REHDm1wyKtZERqcf-xgg-5" value="&lt;div style=&quot;font-family: Arial, sans-serif;&quot; class=&quot;event&quot;&gt;&lt;h3&gt;Coldplay&lt;/h3&gt;&lt;h3 style=&quot;&quot;&gt;&lt;div style=&quot;font-weight: 400; font-size: medium;&quot; class=&quot;event&quot;&gt;&lt;p&gt;Datum: 01.07.23&lt;/p&gt;&lt;p&gt;Uhrzeit: 17:30 Uhr&lt;/p&gt;&lt;p&gt;Ort: Zürich Stadion Letzigrund&lt;/p&gt;&lt;/div&gt;&lt;/h3&gt;&lt;h3&gt;Elton John - Farewell Yellow Brick Road Tour&lt;/h3&gt;&lt;h3&gt;&lt;div style=&quot;font-weight: 400; font-size: medium;&quot; class=&quot;event&quot;&gt;&lt;p&gt;Datum: 01.07.23&lt;/p&gt;&lt;p&gt;Uhrzeit: 20:00 Uhr&lt;/p&gt;&lt;p&gt;Ort: Zürich Hallenstadion&lt;/p&gt;&lt;/div&gt;&lt;/h3&gt;&lt;h3&gt;50 Cent - The Final Lap Tour Zürich&lt;/h3&gt;&lt;h3&gt;&lt;div style=&quot;font-weight: 400; font-size: medium;&quot; class=&quot;event&quot;&gt;&lt;p&gt;Datum: 20.10.23&lt;/p&gt;&lt;p&gt;Uhrzeit: 19:00 Uhr&lt;/p&gt;&lt;p&gt;Ort: Zürich Hallenstadion&lt;/p&gt;&lt;/div&gt;&lt;/h3&gt;&lt;h3&gt;Lil Yachty - The Field Trip Tour&lt;/h3&gt;&lt;h3&gt;&lt;div style=&quot;font-weight: 400; font-size: medium;&quot; class=&quot;event&quot;&gt;&lt;p&gt;Datum: 16.12.23&lt;/p&gt;&lt;p&gt;Uhrzeit: 20:00 Uhr&lt;/p&gt;&lt;p&gt;Ort: Zürich Komplex 457&lt;/p&gt;&lt;/div&gt;&lt;/h3&gt;&lt;h3&gt;Hozier&lt;/h3&gt;&lt;h3&gt;&lt;div style=&quot;font-weight: 400; font-size: medium;&quot; class=&quot;event&quot;&gt;&lt;p&gt;Datum: 14.07.23&lt;/p&gt;&lt;p&gt;Uhrzeit: 20:00 Uhr&lt;/p&gt;&lt;p&gt;Ort: Zürich Halle 622&lt;/p&gt;&lt;/div&gt;&lt;/h3&gt;&lt;h3&gt;Guns N&#39; Roses&lt;/h3&gt;&lt;h3&gt;&lt;div style=&quot;font-weight: 400; font-size: medium;&quot; class=&quot;event&quot;&gt;&lt;p&gt;Datum: 05.07.23&lt;/p&gt;&lt;p&gt;Uhrzeit: 19:00 Uhr&lt;/p&gt;&lt;p&gt;Ort: Bern - Bernexpo Areal Openair&lt;/p&gt;&lt;/div&gt;&lt;/h3&gt;&lt;/div&gt;" style="whiteSpace=wrap;html=1;rounded=0;shadow=0;labelBackgroundColor=none;strokeWidth=1;fillColor=none;fontFamily=Verdana;fontSize=12;align=center;comic=1;strokeColor=none;fontColor=#190033;" parent="1" vertex="1">
          <mxGeometry x="430" y="425" width="240" height="380" as="geometry" />
        </mxCell>
      </root>
    </mxGraphModel>
  </diagram>
</mxfile>
